<svg xmlns="http://www.w3.org/2000/svg" viewBox="0 0 24 24" width="36" height="36" fill="none" stroke="#000000" stroke-width="1" stroke-linecap="round" stroke-linejoin="round">&lt;!--!  Atomicons Free 1.00 by @atisalab License - https://atomicons.com/license/ (Icons: CC BY 4.0) Copyright 2021 Atomicons --&gt;<path d="M19.22,13.27l1.18,1.48A2,2,0,0,1,18.84,18H5.16A2,2,0,0,1,3.6,14.75l1.18-1.48A1,1,0,0,0,5,12.65V9.29A7.2,7.2,0,0,1,11.78,2,7,7,0,0,1,19,9v3.65A1,1,0,0,0,19.22,13.27Z"></path><path d="M16,18a4,4,0,1,1-8,0"></path></svg>