<svg xmlns="http://www.w3.org/2000/svg" viewBox="0 0 24 24" width="36" height="36" fill="none" stroke="#000000" stroke-width="1" stroke-linecap="round" stroke-linejoin="round">&lt;!--!  Atomicons Free 1.00 by @atisalab License - https://atomicons.com/license/ (Icons: CC BY 4.0) Copyright 2021 Atomicons --&gt;<path d="M18,18H5.16l-.3,0-.29-.07a1.48,1.48,0,0,1-.27-.1l-.24-.13-.22-.17c-.06-.06-.13-.12-.19-.19a1.77,1.77,0,0,1-.16-.22,1.71,1.71,0,0,1-.13-.23,2.6,2.6,0,0,1-.1-.25,2.68,2.68,0,0,1-.07-.27,1.12,1.12,0,0,1,0-.27,2.44,2.44,0,0,1,0-.27,1.26,1.26,0,0,1,0-.27,1.43,1.43,0,0,1,.09-.27A1.66,1.66,0,0,1,3.43,15a1.84,1.84,0,0,1,.17-.25l.07-.09.08-.09.07-.1.07-.09L4,14.29,4,14.2l.08-.1L4.19,14l.07-.09.08-.09.07-.09.08-.1.07-.09.07-.09.08-.09.07-.1,0,0,0,0,0,0,0,0,0,0,0,0,0,0v0l0,0V9.29c0-.24,0-.47,0-.71s.06-.47.1-.7.1-.45.17-.67.14-.44.22-.66.18-.42.28-.62" stroke-linecap="round"></path><path d="M8.51,3c.2-.11.39-.22.6-.32a5.93,5.93,0,0,1,.63-.26c.21-.08.43-.14.65-.2s.46-.1.69-.13.47-.05.7-.06.5,0,.74,0,.48,0,.71.09a5,5,0,0,1,.69.16,6.38,6.38,0,0,1,.66.22,6,6,0,0,1,.63.29,5.88,5.88,0,0,1,.6.35c.19.12.38.26.56.4s.35.29.51.45.32.33.47.5.28.36.41.54.25.39.36.59a5.12,5.12,0,0,1,.31.62c.09.21.17.43.24.65s.13.45.18.68a5.81,5.81,0,0,1,.11.71A5.85,5.85,0,0,1,19,9v4"></path><path d="M16,18a4,4,0,1,1-8,0"></path><line x1="2" y1="2" x2="22" y2="22"></line></svg>