<svg xmlns="http://www.w3.org/2000/svg" viewBox="0 0 24 24" width="36" height="36" fill="none" stroke="#000000" stroke-width="1" stroke-linecap="round" stroke-linejoin="round">&lt;!--!  Atomicons Free 1.00 by @atisalab License - https://atomicons.com/license/ (Icons: CC BY 4.0) Copyright 2021 Atomicons --&gt;<path stroke-linecap="round" d="M21,21H4a2,2,0,0,1-2-2V8A2,2,0,0,1,4,6H6"></path><path d="M9,3h4.93a2,2,0,0,1,1.66.89L16.7,5.55a1,1,0,0,0,.84.45H20a2,2,0,0,1,2,2v9"></path><path stroke-linecap="round" d="M15.32,15.24a4.16,4.16,0,0,1-1.08,1.08,5.57,5.57,0,0,1-.68.37,3.83,3.83,0,0,1-.75.23,4.14,4.14,0,0,1-1.62,0,3.83,3.83,0,0,1-.75-.23,5.57,5.57,0,0,1-.68-.37,4.16,4.16,0,0,1-1.08-1.08,5.57,5.57,0,0,1-.37-.68,3.83,3.83,0,0,1-.23-.75,4.14,4.14,0,0,1,0-1.62,3.83,3.83,0,0,1,.23-.75,5.57,5.57,0,0,1,.37-.68A4.16,4.16,0,0,1,9.76,9.68"></path><line x1="2" y1="2" x2="22" y2="22"></line></svg>