<svg xmlns="http://www.w3.org/2000/svg" viewBox="0 0 24 24" width="36" height="36" fill="none" stroke="#000000" stroke-width="1" stroke-linecap="round" stroke-linejoin="round">&lt;!--!  Atomicons Free 1.00 by @atisalab License - https://atomicons.com/license/ (Icons: CC BY 4.0) Copyright 2021 Atomicons --&gt;<path d="M17,19H15.8a2,2,0,0,0-1.4.6l-1,1a1.9,1.9,0,0,1-2.8,0l-1-1A2,2,0,0,0,8.2,19H7a2,2,0,0,1-2-2V15.8a2,2,0,0,0-.6-1.4l-1-1a1.9,1.9,0,0,1,0-2.8l1-1A2,2,0,0,0,5,8.2V7A2,2,0,0,1,7,5H8.2a2,2,0,0,0,1.4-.6l1-1a1.9,1.9,0,0,1,2.8,0l1,1a2,2,0,0,0,1.4.6H17a2,2,0,0,1,2,2V8.2a2,2,0,0,0,.6,1.4l1,1a1.9,1.9,0,0,1,0,2.8l-1,1a2,2,0,0,0-.6,1.4V17A2,2,0,0,1,17,19Z"></path><line x1="9" y1="9" x2="9.1" y2="9" stroke-width="2"></line><line x1="15" y1="15" x2="15.1" y2="15" stroke-width="2"></line><line x1="9" y1="15" x2="15" y2="9"></line></svg>