<svg xmlns="http://www.w3.org/2000/svg" viewBox="0 0 24 24" width="36" height="36" fill="none" stroke="#000000" stroke-width="1" stroke-linecap="round" stroke-linejoin="round">&lt;!--!  Atomicons Free 1.00 by @atisalab License - https://atomicons.com/license/ (Icons: CC BY 4.0) Copyright 2021 Atomicons --&gt;<path d="M3,4V20a2,2,0,0,0,2,2H19a2,2,0,0,0,2-2V9.83a2,2,0,0,0-.59-1.42L14.59,2.59A2,2,0,0,0,13.17,2H5A2,2,0,0,0,3,4Z"></path><path d="M20.6,9H16a2,2,0,0,1-2-2V2.4" stroke-linecap="round"></path><line x1="12" y1="12" x2="12" y2="18"></line><line x1="15" y1="15" x2="9" y2="15"></line></svg>