<svg xmlns="http://www.w3.org/2000/svg" viewBox="0 0 24 24" width="36" height="36" fill="none" stroke="#000000" stroke-width="1" stroke-linecap="round" stroke-linejoin="round">&lt;!--!  Atomicons Free 1.00 by @atisalab License - https://atomicons.com/license/ (Icons: CC BY 4.0) Copyright 2021 Atomicons --&gt;<path d="M21.57,5l-7.14,8.48A1.82,1.82,0,0,0,14,14.67V20a2,2,0,0,1-2,2h0a2,2,0,0,1-2-2V14.67a1.82,1.82,0,0,0-.43-1.18L2.43,5A1.82,1.82,0,0,1,2,3.83H2A1.83,1.83,0,0,1,3.83,2H20.17A1.83,1.83,0,0,1,22,3.83h0A1.82,1.82,0,0,1,21.57,5Z"></path></svg>