<svg xmlns="http://www.w3.org/2000/svg" viewBox="0 0 24 24" width="36" height="36" fill="none" stroke="#000000" stroke-width="1" stroke-linecap="round" stroke-linejoin="round">&lt;!--!  Atomicons Free 1.00 by @atisalab License - https://atomicons.com/license/ (Icons: CC BY 4.0) Copyright 2021 Atomicons --&gt;<path d="M4,13H20a0,0,0,0,1,0,0v7a2,2,0,0,1-2,2H6a2,2,0,0,1-2-2V13A0,0,0,0,1,4,13Z"></path><rect x="2" y="8" width="20" height="5" rx="2"></rect><path d="M12,8H7.54a3,3,0,0,1-3-2.51h0A3,3,0,0,1,7.54,2h.3a3,3,0,0,1,2.84,2.05Z"></path><path d="M16.46,8H12l1.32-3.95a3,3,0,0,1,2.84-2h.3a3,3,0,0,1,3,3.49h0A3,3,0,0,1,16.46,8Z"></path><line x1="12" y1="22" x2="12" y2="8"></line></svg>