<svg xmlns="http://www.w3.org/2000/svg" viewBox="0 0 24 24" width="36" height="36" fill="none" stroke="#000000" stroke-width="1" stroke-linecap="round" stroke-linejoin="round">&lt;!--!  Atomicons Free 1.00 by @atisalab License - https://atomicons.com/license/ (Icons: CC BY 4.0) Copyright 2021 Atomicons --&gt;<path d="M22,8.33v7.34a2,2,0,0,1-.59,1.42l-4.32,4.32a2,2,0,0,1-1.42.59H8.33a2,2,0,0,1-1.42-.59L2.59,17.09A2,2,0,0,1,2,15.67V8.33a2,2,0,0,1,.59-1.42L6.91,2.59A2,2,0,0,1,8.33,2h7.34a2,2,0,0,1,1.42.59l4.32,4.32A2,2,0,0,1,22,8.33Z"></path><line x1="11.99" x2="12.01" y1="17" y2="17" stroke-linecap="round"></line><line x1="12" x2="12" y1="7" y2="13"></line></svg>