<svg xmlns="http://www.w3.org/2000/svg" viewBox="0 0 24 24" width="36" height="36" fill="none" stroke="#000000" stroke-width="1" stroke-linecap="round" stroke-linejoin="round">&lt;!--!  Atomicons Free 1.00 by @atisalab License - https://atomicons.com/license/ (Icons: CC BY 4.0) Copyright 2021 Atomicons --&gt;<path d="M21.54,16.56,17.6,21.28a2,2,0,0,1-1.54.72H7.94a2,2,0,0,1-1.54-.72L2.46,16.56A2,2,0,0,1,2,15.28V9A2,2,0,0,1,4,7H20a2,2,0,0,1,2,2v6.28A2,2,0,0,1,21.54,16.56Z"></path><line x1="7" y1="2" x2="7" y2="7"></line><line x1="17" y1="2" x2="17" y2="7"></line></svg>