<?xml version="1.0" encoding="iso-8859-1"?>
<!-- Generator: Adobe Illustrator 19.0.0, SVG Export Plug-In . SVG Version: 6.00 Build 0)  -->
<svg version="1.1" id="Layer_1" xmlns="http://www.w3.org/2000/svg" xmlns:xlink="http://www.w3.org/1999/xlink" x="0px" y="0px"
	 viewBox="0 0 512 512" style="enable-background:new 0 0 512 512;" xml:space="preserve">
<path style="fill:#F12D51;" d="M510.859,196.558c-2.737-8.426-10.021-14.568-18.791-15.842l-148.695-21.604l-66.5-134.753
	c-3.92-7.945-12.012-12.976-20.873-12.976c-8.861,0-16.953,5.031-20.873,12.976L168.631,159.11l-148.7,21.604
	c-8.768,1.274-16.055,7.416-18.791,15.842c-2.739,8.426-0.455,17.678,5.891,23.862L114.63,325.291L89.22,473.405
	c-1.497,8.732,2.092,17.558,9.26,22.766c7.169,5.206,16.669,5.895,24.514,1.772L256,428.021l133.007,69.922
	c3.405,1.791,7.124,2.674,10.828,2.674c0.033,0,0.067,0,0.099,0c12.827-0.036,23.21-10.444,23.21-23.277
	c0-1.788-0.202-3.529-0.582-5.202l-25.193-146.846L504.97,220.42C511.314,214.236,513.598,204.986,510.859,196.558z"/>
<path style="fill:#EB1010;" d="M235.127,24.361l-66.496,134.751l-148.7,21.604c-8.768,1.274-16.055,7.416-18.791,15.842
	c-2.739,8.426-0.455,17.678,5.891,23.862L114.63,325.293L89.22,473.405c-1.497,8.733,2.092,17.558,9.26,22.766
	c7.169,5.206,16.669,5.895,24.514,1.772L256,428.021V11.385C247.139,11.385,239.047,16.414,235.127,24.361z"/>
<g>
</g>
<g>
</g>
<g>
</g>
<g>
</g>
<g>
</g>
<g>
</g>
<g>
</g>
<g>
</g>
<g>
</g>
<g>
</g>
<g>
</g>
<g>
</g>
<g>
</g>
<g>
</g>
<g>
</g>
</svg>
